<svg width="61" height="61" viewBox="0 0 61 61" fill="none" xmlns="http://www.w3.org/2000/svg">
<path d="M55.2812 7.92523C55.2662 6.35773 54.6339 4.85934 53.5215 3.75492C52.409 2.6505 50.9061 2.02908 49.3385 2.02539L11.6329 1.90625C10.0669 1.90656 8.56499 2.52779 7.45636 3.63375C6.34772 4.73971 5.72285 6.24014 5.71875 7.80609V46.7031C5.71875 49.9557 8.3732 52.4219 11.6329 52.4219H43.8438L42.2949 47.1797L55.2812 59.0938V7.92523ZM38.679 39.2938C38.679 39.2938 37.6401 38.0559 36.7728 36.992C40.5543 35.9269 41.9971 33.5977 41.9971 33.5977C40.9585 34.2866 39.8454 34.8562 38.679 35.2954C37.3323 35.8546 35.9301 36.2695 34.496 36.5333C32.0249 36.9872 29.491 36.9775 27.0235 36.5047C25.572 36.2351 24.1515 35.82 22.7833 35.2656C22.0595 34.9884 21.3557 34.6616 20.6769 34.2875C20.5899 34.2303 20.5041 34.2017 20.4171 34.1433C20.3587 34.1147 20.3302 34.0861 20.298 34.0861C19.7785 33.7978 19.4902 33.5965 19.4902 33.5965C19.4902 33.5965 20.8746 35.8709 24.5394 36.9634C23.6732 38.0571 22.6057 39.3236 22.6057 39.3236C16.2305 39.1222 13.8072 34.9785 13.8072 34.9785C13.8072 25.7975 17.9616 18.3441 17.9616 18.3441C22.1161 15.2643 26.0394 15.3513 26.0394 15.3513L26.3277 15.6968C21.1344 17.1646 18.7694 19.4378 18.7694 19.4378C18.7694 19.4378 19.4032 19.0923 20.4707 18.6312C23.5577 17.279 26.0108 16.9335 27.0235 16.8191C27.1851 16.7855 27.3493 16.766 27.5143 16.7607C29.4475 16.5099 31.4038 16.4907 33.3415 16.7035C36.3841 17.053 39.3317 17.9811 42.0257 19.4378C42.0257 19.4378 39.7465 17.2754 34.8415 15.81L35.2454 15.3501C35.2454 15.3501 39.1973 15.2631 43.3243 18.3477C43.3243 18.3477 47.4787 25.8011 47.4787 34.9821C47.4787 34.9487 45.0542 39.0924 38.679 39.2938Z" fill="white"/>
<path d="M25.2638 25.9727C23.6196 25.9727 22.321 27.3833 22.321 29.1382C22.321 30.8932 23.6482 32.3038 25.2638 32.3038C26.9079 32.3038 28.2065 30.8944 28.2065 29.1382C28.2363 27.3797 26.9079 25.9727 25.2638 25.9727Z" fill="white"/>
<path d="M35.7934 25.9727C34.1493 25.9727 32.8506 27.3833 32.8506 29.1382C32.8506 30.8932 34.1779 32.3038 35.7934 32.3038C37.4387 32.3038 38.7362 30.8944 38.7362 29.1382C38.7362 27.3821 37.4102 25.9727 35.7934 25.9727Z" fill="white"/>
</svg>
