<svg width="50" height="50" viewBox="0 0 50 50" fill="none" xmlns="http://www.w3.org/2000/svg">
<path fill-rule="evenodd" clip-rule="evenodd" d="M43.8912 0C47.2628 0 50 2.7373 50 6.10879V43.8912C50 47.2627 47.2627 50 43.8912 50H6.10879C2.7373 50 0 47.2627 0 43.8912V6.10879C0 2.7373 2.73721 0 6.10879 0L43.8912 0ZM25 7.91016C20.3587 7.91016 19.7767 7.92979 17.9539 8.01299C16.1349 8.096 14.8926 8.38486 13.8055 8.80742C12.6816 9.24414 11.7286 9.82852 10.7785 10.7785C9.82842 11.7286 9.24404 12.6817 8.80732 13.8055C8.38486 14.8926 8.096 16.1349 8.01289 17.9539C7.92979 19.7767 7.91016 20.3587 7.91016 25C7.91016 29.6413 7.92979 30.2233 8.01289 32.0461C8.096 33.8651 8.38486 35.1074 8.80732 36.1945C9.24404 37.3183 9.82842 38.2714 10.7785 39.2215C11.7286 40.1716 12.6816 40.756 13.8055 41.1927C14.8926 41.6151 16.1349 41.904 17.9539 41.987C19.7767 42.0702 20.3587 42.0898 25 42.0898C29.6413 42.0898 30.2233 42.0702 32.0461 41.987C33.8651 41.904 35.1074 41.6151 36.1945 41.1927C37.3183 40.756 38.2714 40.1716 39.2215 39.2215C40.1716 38.2714 40.756 37.3183 41.1927 36.1945C41.6151 35.1074 41.904 33.8651 41.987 32.0461C42.0702 30.2233 42.0898 29.6413 42.0898 25C42.0898 20.3587 42.0702 19.7767 41.987 17.9539C41.904 16.1349 41.6151 14.8926 41.1927 13.8055C40.756 12.6817 40.1716 11.7286 39.2215 10.7785C38.2714 9.82852 37.3183 9.24414 36.1945 8.80742C35.1074 8.38486 33.8651 8.096 32.0461 8.01299C30.2233 7.92979 29.6413 7.91016 25 7.91016ZM25 10.9895C29.5632 10.9895 30.1037 11.0068 31.9058 11.0891C33.572 11.1651 34.4769 11.4436 35.0791 11.6774C35.8769 11.9875 36.4461 12.3579 37.0441 12.9559C37.6422 13.5539 38.0125 14.1232 38.3226 14.9209C38.5565 15.5231 38.835 16.428 38.9109 18.0942C38.9932 19.8963 39.0106 20.4368 39.0106 25C39.0106 29.5632 38.9932 30.1037 38.9109 31.9058C38.835 33.572 38.5565 34.4769 38.3226 35.0791C38.0125 35.8769 37.6422 36.4461 37.0441 37.0441C36.4461 37.6422 35.8769 38.0125 35.0791 38.3226C34.4769 38.5565 33.572 38.835 31.9058 38.9109C30.104 38.9932 29.5635 39.0106 25 39.0106C20.4365 39.0106 19.8961 38.9932 18.0942 38.9109C16.428 38.835 15.5231 38.5565 14.9209 38.3226C14.1231 38.0125 13.5539 37.6422 12.9559 37.0441C12.3578 36.4461 11.9874 35.8769 11.6774 35.0791C11.4435 34.4769 11.165 33.572 11.089 31.9058C11.0067 30.1037 10.9894 29.5632 10.9894 25C10.9894 20.4368 11.0067 19.8963 11.089 18.0942C11.165 16.428 11.4435 15.5231 11.6774 14.9209C11.9874 14.1232 12.3578 13.5539 12.9559 12.9559C13.5539 12.3579 14.1231 11.9875 14.9209 11.6774C15.5231 11.4436 16.428 11.1651 18.0942 11.0891C19.8963 11.0068 20.4368 10.9895 25 10.9895ZM25 16.2241C20.1532 16.2241 16.2241 20.1532 16.2241 25C16.2241 29.8468 20.1532 33.7759 25 33.7759C29.8468 33.7759 33.7759 29.8468 33.7759 25C33.7759 20.1532 29.8468 16.2241 25 16.2241ZM25 30.6966C21.8538 30.6966 19.3034 28.1462 19.3034 25C19.3034 21.8538 21.8538 19.3034 25 19.3034C28.1462 19.3034 30.6966 21.8538 30.6966 25C30.6966 28.1462 28.1462 30.6966 25 30.6966ZM36.1734 15.8774C36.1734 17.0101 35.2552 17.9281 34.1226 17.9281C32.99 17.9281 32.0719 17.0101 32.0719 15.8774C32.0719 14.7448 32.99 13.8267 34.1226 13.8267C35.2552 13.8267 36.1734 14.7448 36.1734 15.8774Z" fill="white"/>
</svg>
