<?xml version="1.0" encoding="UTF-8"?>
<svg id="Layer_2" data-name="Layer 2" xmlns="http://www.w3.org/2000/svg" viewBox="0 0 3110.6842 3286">
  <defs>
    <style>
      .cls-1 {
        fill: #f2992f;
      }

      .cls-1, .cls-2, .cls-3, .cls-4, .cls-5, .cls-6, .cls-7, .cls-8, .cls-9, .cls-10 {
        stroke-miterlimit: 10;
      }

      .cls-1, .cls-2, .cls-3, .cls-5, .cls-9, .cls-10 {
        stroke: #fff6e9;
      }

      .cls-1, .cls-10 {
        stroke-width: 18px;
      }

      .cls-2, .cls-5, .cls-7, .cls-8 {
        stroke-width: 20px;
      }

      .cls-2, .cls-8 {
        fill: none;
        stroke-linecap: round;
      }

      .cls-3 {
        stroke-width: 15px;
      }

      .cls-3, .cls-11 {
        fill: #0c418e;
      }

      .cls-4 {
        fill: #161719;
        stroke: #161719;
        stroke-width: 65px;
      }

      .cls-5, .cls-12 {
        fill: #fff6e9;
      }

      .cls-6 {
        fill: #020000;
      }

      .cls-6, .cls-7, .cls-8 {
        stroke: #fff;
      }

      .cls-6, .cls-9 {
        stroke-width: 16px;
      }

      .cls-13 {
        fill: #fff;
      }

      .cls-14 {
        fill: #0b1935;
      }

      .cls-9, .cls-10 {
        fill: #ffb81c;
      }
    </style>
  </defs>
  <path class="cls-13" d="M2072.5264,1717.8023c-1.3723-8.039-3.7533-15.5778-7.1203-22.5249-5.283-10.8977-9.8058-16.9798-15.0418-24.022-4.6658-6.2748-9.9539-13.387-17.3401-26.173-.1578-.273-.5787-1.0374-1.0445-2.1682-.6098-1.4801.6165-3.0779,2.1996-2.8404,2.1094.3166,4.2468.7132,6.0553,1.0488.5978.1109,1.1649.2442,1.733.4072,4.4829,1.2871,20.7122,5.6841,41.2527,8.2045,2.8725.3521,5.7951.5309,8.6869.5309,10.3596-.0005,19.2478-2.2598,26.0309-4.8487,1.1118,4.9893,1.631,9.3347,1.869,12.4989-2.1357,1.5946-4.4697,3.5254-6.9303,5.9845-12.0028,11.9926-18.558,23.1182-24.3418,32.9342-5.3209,9.0302-9.3001,15.7837-16.0086,20.9681Z"/>
  <path class="cls-8" d="M1534.9995,1575.9873c-2.8261,4.658-46.8557,87.7329-.5524,177.216,45.563,88.0525,125.7278,90.9609,131.7983,91.4727"/>
  <path class="cls-8" d="M1864.1285,1664.9027c-14.5892,2.3093-34.0858,6.9274-55.5255,16.6731-19.4131,8.8244-34.5054,19.1649-45.3789,27.8547"/>
  <path class="cls-8" d="M1880.8252,1731.0417c-11.7902,2.6829-29.0371,8.0522-47.4158,19.4718-16.5539,10.2858-28.1796,21.8475-35.667,30.5486"/>
  <path class="cls-8" d="M1936.3634,1822.9185c12.2911-.8478,26.6722-2.8853,42.3415-7.1963,32.8962-9.0507,57.4592-24.2673,73.2953-36.1613,3.3291,5.2451,7.2283,10.8305,11.7864,16.5758,3.2337,4.0758,6.4546,7.7979,9.5886,11.1834"/>
  <path class="cls-6" d="M1465.4354,1727.6105l-15.1882-2.6887c-62.156-11.003-103.6237-70.3102-92.6206-132.4662l16.1229-91.0778c11.0031-62.156,70.3102-103.6237,132.4662-92.6206l15.1882,2.6887c5.7104.8455,13.54,2.4745,22.3596,5.8708,30.54,11.7604,46.8719,34.6672,51.3854,41.1799,25.1249,36.254,20.318,75.7839,18.8756,85.4154l-16.1229,91.0778c-11.0031,62.156-70.3102,103.6237-132.4662,92.6206Z"/>
  <path class="cls-4" d="M2009.6356,1545.6884c-34.9712-43.4057-17.0936-67.4811-41.2583-113.0201,13.9703,7.3148,23.1633,16.2436,24.7841,27.1492,2.2187,14.9276-6.7358,4.0674-3.2554,8.5121,9.775,12.4826,166.8799-38.2084,156.4143-84.9266-2.2985-10.2602-11.969-17.4284-22.4297-22.4052-6.7565-3.2145-14.0081-5.2648-21.4175-6.3056-37.734-5.3002-82.8542-11.1936-119.3958-16.0841-23.1298-3.0955-46.2709-6.1184-69.4188-9.0995l-.1438-.0342c-.0209.0024-.0423.005-.063.0074-5.3633-.6906-10.7245-1.3935-16.0888-2.078-4.1534-14.5766-11.8666-34.6312-27.2268-53.9841-54.0352-68.0812-153.9219-68.4039-215.0895-63.6304,1.6061-.7837,3.111-1.4652,4.4993-2.0603,37.7221-16.1714,73.6237-1.7505,73.7455-2.9897.1384-1.4091-46.4805-15.8293-101.6492-5.9794-20.4008,3.6424-32.1747,8.4458-38.8089,11.5118,0,0-6.9117,2.888-16.5777,9.1052-37.5569,7.3133-78.8953,21.8906-110.4892,56.0799-16.2125,17.5442-28.811,39.1182-36.3025,51.9469-21.4253,36.6893-33.8379,71.8572-41.4314,95.8592-25.7249,15.7795-44.8376,42.0731-50.5119,74.1271l-11.837,66.8668c-46.9295,100.375-71.3258,218.0855-62.0667,307.8173,1.9949,19.3335,14.1747,36.129,31.8184,44.2815l575.601,265.9617c5.6173,2.5955,10.4742-4.7778,5.8651-8.9066-67.2754-60.2633-152.8754-144.5161-152.8754-222.9255-1.5931-123.0821,130.6873-53.7292,194.6919-1.5351,15.8364,12.9142,38.8569,11.8858,53.4544-2.4139,74.8119-73.2856,188.4411-226.4483,146.2473-322.5991-23.642-41.4018-66.1314-25.3088-108.784-78.2487Z"/>
  <path class="cls-7" d="M1434.2572,1387.4384c9.977-5.2625,19.7009-10.3519,29.963-13.2839,45.8418-14.9484,91.6836-22.9209,134.5357-45.8418,9.5316-4.9565,18.9525-10.0972,28.3002-15.3556"/>
  <path class="cls-3" d="M1869.409,1407.016c65.6863-14.4251,30.1347,43.0784,34.7929,73.2723,2.3032,14.9276,70.1325-14.4102,73.7455-9.9656,10.1475,12.4826,184.1995-41.1981,173.3352-87.9163-2.5534-10.9795-13.8702-18.4182-25.5778-23.4199-6.0172-2.5706-12.3727-4.2627-18.8557-5.1488-38.2106-5.2225-76.4387-10.299-114.6843-15.2297-24.0111-3.0955-48.0339-6.1184-72.0639-9.0995l-.1493-.0342c-.0217.0024-.0439.005-.0654.0074-5.5677-.6906-10.1156-.9828-15.6843-1.6672,0,0-12.726-35.0419-28.0862-54.3948-63.0246-79.4072-194.4105-66.6368-247.9962-61.114-45.5866,4.6983-114.9428,11.8465-162.3529,63.1511-16.2125,17.5442-28.811,39.1182-36.3025,51.9469-25.3095,43.3407-38.0444,84.5633-45.1124,107.758-3.1226,10.2471-5.6946,19.7049-7.8288,28.2207,155.8454-58.1866,283.6568-66.5599,368.0672-64.1697,0,0,70.297,12.4808,91.5974,11.7135,12.1879-.439,21.286-1.5789,33.2215-3.9103"/>
  <path class="cls-5" d="M2119.4824,1626.4516c-.7675-1.8869-1.7204-3.7-2.8115-5.4202-23.9493-37.7579-65.4146-23.6839-107.0353-75.3431-37.5156-46.5637-14.2034-70.8773-47.2289-123.3121-37.9005-60.1748-101.6441-80.6135-190.1888-109.0009-41.945-16.63-101.5639-16.8391-139.234,9.124-1.956-3.2431-3.9341-6.4191-5.9278-9.5423-9.3477,5.2583-18.7686,10.3991-28.3002,15.3556-42.8521,22.9209-88.6939,30.8934-134.5357,45.8418-10.2621,2.932-19.986,8.0215-29.963,13.2839,1.3491,6.1244,2.825,12.4041,4.4432,18.8547-114.2334,97.2698-188.2288,313.6273-175.6322,459.9792,1.943,22.5741,15.7489,42.4045,36.3169,51.9081l563.5505,260.3937c7.006,3.2372,13.0822-5.935,7.3564-11.1097-66.5553-60.1497-146.2659-146.5366-146.2659-216.9792-1.5932-123.0847,130.6931-53.7262,194.696-1.5317,15.8338,12.9125,38.8509,11.8839,53.4464-2.4135,74.163-72.6485,186.4775-223.7997,147.314-320.0884Z"/>
  <path class="cls-14" d="M2055.9789,1802.3302c-2.2403-2.8233-4.4183-5.7263-6.5195-8.6858-21.0154,14.3781-43.8827,25.0211-68.1116,31.6866-14.4024,3.9619-29.3071,6.4952-44.2993,7.5297-.2326.0156-.4652.0234-.6949.0234-7.2936,0-12.9798-7.9374-8.1876-16.0856,1.2952-2.2022,3.6284-3.5757,6.1783-3.7348,14.1196-.8808,28.1637-3.2216,41.717-6.9496,25.1213-6.9117,48.6573-18.5269,69.9549-34.5215l8.6197-6.4738,5.7779,9.1014c3.4403,5.4188,7.2017,10.7091,11.1792,15.7221l4.8581,6.1189c29.5618-43.2243,42.3858-90.8258,40.9961-130.3835-.0818-2.3279-2.9219-3.4235-4.5704-1.7777h0c-12.0028,11.9926-18.558,23.1182-24.3418,32.9342-5.3209,9.0302-9.3001,15.7837-16.0086,20.9681-1.3723-8.039-3.7533-15.5778-7.1203-22.5249-5.283-10.8977-9.8058-16.9798-15.0418-24.022-4.6658-6.2748-9.9539-13.387-17.3401-26.173l-.0087-.015c-1.3279-2.3029.6306-5.1027,3.2516-4.6584,1.3985.237,2.7567.4891,3.9674.7137.5978.1109,1.1649.2442,1.733.4072,4.4829,1.2871,20.7122,5.6841,41.2527,8.2045,2.8725.3521,5.7951.5309,8.6869.5309,6.2248-.0003,11.9163-.8168,16.9396-2.0301,3.5944-.8681,5.7651-4.566,4.7716-8.1278-1.1148-3.9967-2.4781-7.8943-4.1123-11.6789-9.7729-16.796-23.3754-22.3744-40.5554-29.4219-19.4018-7.9584-43.547-17.8627-67.0752-47.0656-21.3531-26.5028-24.6415-47.0359-27.8229-66.8932-2.8145-17.5731-5.4733-34.1716-20.0782-57.3602-35.9677-57.1071-98.3958-77.1215-184.7988-104.8223l-.6306-.2258c-37.2893-14.783-93.8845-16.7605-129.9057,8.0654l-8.7194,6.0095-6.2946-10.4364c-7.0393,3.8847-13.7135,7.4652-20.2233,10.851-30.6657,16.3926-63.0841,25.4527-94.4339,34.213-13.6725,3.8208-27.8103,7.7715-41.6585,12.2872l-.3513.1075c-7.1253,2.0359-14.2706,5.3838-21.2874,8.9817.8623,3.706,1.7639,7.4353,2.6958,11.15l1.5051,6.0013-4.7108,4.0111c-56.8346,48.395-108.014,132.2613-140.4158,230.0956-15.1723,45.8111-25.6473,93.3157-30.2934,137.3794-2.8738,27.2525-3.5153,53.2691-1.9567,77.0532,1.5118,23.0691,15.4228,43.4951,36.4094,53.1921l529.4681,244.6446c1.8751.8664,3.5167-1.5525,2.0259-2.9823-30.8469-29.5825-56.4069-57.9168-76.1968-84.4846-33.2505-44.6409-50.121-84.4177-50.1414-118.2297-.4701-37.3963,10.7675-61.9026,33.4013-72.8307,49.4193-23.8581,134.8549,28.6891,177.5455,63.5016,11.9334,9.7291,29.2146,8.9525,40.1992-1.8102,31.6459-31.0017,67.2345-73.1651,96.0519-118.1866,2.7237-4.2552,2.3175-9.7788-.9545-13.6284-1.4744-1.7347-2.9187-3.4926-4.3247-5.2647Z"/>
  <path class="cls-12" d="M1853.8687,1481.7612c-12.8142-5.5925-27.3548-2.5542-45.763,1.2919-5.1006,1.0657-10.3753,2.1678-15.9352,3.1469-.4632.0813-.9158.1328-1.3586.1606,11.2094,12.7461,47.3357,44.6608,55.8609,48.813,9.7087,1.9664,20.3546-1.4262,31.6194-5.013,3.7283-1.1868,7.5151-2.3926,11.3573-3.4271-11.5013-24.9938-23.0026-39.3963-35.7808-44.9722Z"/>
  <path class="cls-12" d="M1543.549,1581.1744c-6.2915,12.0921-10.6396,25.1795-13.9206,38.4091-6.6007,26.9373-7.4815,55.3396-1.8007,82.5056,4.3353,20.2167,12.242,39.7298,23.1922,57.2806,21.0578,34.9897,56.0296,61.6591,96.1948,70.1107,5.7171,1.2561,11.494,2.1286,17.3104,2.5712,0,0,2.7686.1898,2.7686.1898,6.8759.4713,12.0679,6.4275,11.5965,13.3035-.468,7.0153-6.7011,12.2708-13.6932,11.5655-1.4189-.1048-4.3012-.3725-5.7223-.5221-13.8084-1.5748-27.3829-5.0298-40.3123-10.0361-38.7197-14.6799-70.6215-44.355-90.5605-80.3587-11.3637-20.2682-19.4619-42.5251-23.1985-65.4882-7.0904-43.1433.2007-89.3722,20.1231-128.2847.0003,0,.4045-.7317.4045-.7317l.519-.8889c2.7816-4.7643,8.8988-6.3717,13.6631-3.5901,4.909,2.8465,6.3751,9.1984,3.4359,13.9644h0Z"/>
  <path class="cls-2" d="M1864.1285,1664.9027c-14.5892,2.3093-34.0858,6.9274-55.5255,16.6731-19.4131,8.8244-34.5054,19.1649-45.3789,27.8547"/>
  <path class="cls-2" d="M1880.8252,1731.0417c-11.7902,2.6829-29.0371,8.0522-47.4158,19.4718-16.5539,10.2858-28.1796,21.8475-35.667,30.5486"/>
  <path class="cls-3" d="M2058.8744,1374.2138c-12.0085.593-26.1162,2.4321-26.1162,2.4321-.0001,0-14.5944,1.9025-28.9003,4.9828-37.4628,8.0664-73.723,21.6165-112.6114,29.8968-20.6008,4.3864-36.6908,4.7997-46.8384,4.9828-21.7939.3933-57.4559-1.6979-99.8181-17.2957-84.4104-2.3902-212.2218,5.9831-368.0672,64.1697,2.1341-8.5158,4.7062-17.9736,7.8288-28.2207,7.068-23.1947,19.8029-64.4173,45.1124-107.758,7.4915-12.8287,20.09-34.4027,36.3025-51.9469,47.4102-51.3046,116.7663-58.4528,162.3529-63.1511,53.5857-5.5228,184.9716-18.2933,247.9962,61.114,15.3602,19.3529,28.0862,54.3948,28.0862,54.3948,5.5687.6845,10.1166.9766,15.6843,1.6672.0215-.0024.0438-.005.0654-.0074l.1493.0342c24.03,2.9811,48.0528,6.0041,72.0639,9.0995,38.1695,4.9209,76.3216,9.987,114.4562,15.1985,10.1032,1.3807,19.7641,5.27,27.7281,11.6384,5.9292,4.7413,10.7448,10.5722,13.101,17.1025.3059.8479-.6815,1.5909-1.39,1.0337-17.6354-13.8682-46.4394-11.3796-87.1857-9.3673Z"/>
  <path class="cls-9" d="M1733.2917,1204.7392c.1384-1.409-46.4805-15.8293-101.6492-5.9794-20.4008,3.6424-32.1747,8.4458-38.8089,11.5119,0,0-24.5629,10.2614-45.8418,33.7528-49.5964,54.7533-76.8782,139.5976-82.7715,165.0096l71.7524,13.9519c5.8932-27.0106,28.1353-121.1832,77.7317-179.381,19.2995-22.6465,35.6261-31.4967,45.8418-35.8762,37.7221-16.1714,73.6237-1.7505,73.7455-2.9897Z"/>
  <path class="cls-1" d="M1361.6931,1689.0991s23.1812,28.6194,90.5684,36.8414l13.1739,1.67c62.156,11.0031,121.4631-30.4646,132.4662-92.6206l16.1229-91.0778c1.4424-9.6315,6.2493-49.1614-18.8756-85.4154-4.5135-6.5127-20.8454-29.4196-51.3854-41.1799-8.8196-3.3963-16.6491-5.0254-22.3596-5.8708l-15.1882-2.6887c-62.156-11.003-121.4631,30.4646-132.4661,92.6206l-16.1229,91.0778,4.0664,96.6434Z"/>
  <rect class="cls-10" x="1328.0259" y="1407.7568" width="233.3349" height="307.0326" rx="109.6695" ry="109.6695" transform="translate(294.2748 -227.9306) rotate(10.0389)"/>
  <g id="goVIl1.tif">
    <g>
      <g>
        <path class="cls-12" d="M1413.395,1657.0283c-9.0396,0-19.3032-4.8154-26.1484-12.2695-6.916-7.5312-5.2031-17.5469-3.6919-26.3838.2104-1.2314.4194-2.4541.6045-3.6602,2.7437-17.875,5.687-35.9941,8.5342-53.5166,1.8735-11.5332,3.811-23.459,5.6689-35.1768.1616-1.0186.2944-2.041.4272-3.0615.124-.9482.2485-1.9062.397-2.8691-1.2231,1.2939-2.415,2.6709-3.5874,4.0254-4.7749,5.5176-9.7124,11.2217-16.647,11.2236h-.002c-1.6074,0-3.269-.3174-4.939-.9434-7.2627-2.7246-11.9722-10.5967-11.7183-19.5889.2192-7.79,6.6821-16.751,9.4507-20.2417,19.23-24.252,53.8892-32.8569,77.7266-32.8569,3.7744,0,7.4814.1987,11.0186.5903,1.1655.1284,2.3428.2739,3.5073.4316,28.4297,3.8599,49.8315,18.9741,58.7188,41.4663,7.0649,17.8809,5.5903,40.9131-3.7563,58.6777-16.0488,30.5-48.9448,41.3223-72.2388,41.3223-2.3628,0-4.7114-.1055-7.0054-.3154-.8804,5.4971-1.8882,10.999-2.8662,16.3379l-.2832,1.5469c-.3667,2.002-.6909,4.0215-1.0127,6.0225-2.2988,14.29-4.6753,29.0674-21.8936,29.2383l-.2637.001ZM1424.1699,1506.7832c-2.8525,0-5.4155.4658-7.4121,1.3467-7.2524,3.2002-8.1313,9.4004-9.2446,17.252-.1484,1.0498-.3003,2.1182-.4697,3.2002-2.002,12.7646-4.1128,25.749-6.1543,38.3066-2.6904,16.5479-5.4722,33.6592-8.0474,50.5332-.1567,1.0264-.3604,2.1387-.5742,3.3057-.9771,5.332-2.1934,11.9678.3613,15.8301,3.8711,5.8545,14.3975,10.3955,20.8696,10.3955.2017,0,.3994-.0039.5942-.0127,6.6753-.3008,8.4629-3.082,10.4448-11.2871,1.4761-6.1113,2.501-12.6094,3.4922-18.8936.7944-5.0352,1.6157-10.2412,2.667-15.2412l1.3408-9.1357,2.0894.4502c3.98.8564,8.2461,1.291,12.6797,1.291,26.917,0,58.834-16.0068,67.7563-46.6006,7.3164-25.0898-.4385-49.2178-20.2383-62.9688-11.811-8.2021-28.3022-12.7197-46.436-12.7197-27.5361,0-53.6235,10.2837-68.0815,26.8379-3.0044,3.4404-7.8296,10.4531-8.6953,14.1328-1.2749,5.4209,2.4648,11.4258,6.4209,12.5391.6328.1777,1.2412.2676,1.8081.2676,3.0947,0,5.3745-2.7959,8.0142-6.0332.7544-.9258,1.5347-1.8828,2.3643-2.8076,13.354-14.8779,30.2646-22.7422,48.9048-22.7422,4.6846,0,9.4683.5132,14.2178,1.5254,10.0488,2.1421,18.4043,7.9238,24.1626,16.7197,5.1738,7.9033,7.7017,17.7764,6.9346,27.0869-1.1914,14.4521-10.7217,30.2715-33.8979,31.3291-.7754.0352-1.5537.0527-2.3325.0527-3.3237,0-6.7075-.3115-10.0571-.9258l-1.917-.3506,4.8574-31.0381c.2031-2.3428.5381-4.6562.8618-6.8936,1.2241-8.4512,2.2808-15.75-4.127-20.8945-2.9185-2.3428-8.083-3.8574-13.1567-3.8574ZM1446.543,1560.6084c.6475.0391,1.2998.0596,1.9531.0596,9.7207,0,21.3149-4.3975,24.7031-16.7422,2.5-9.1094.895-18.3535-4.5195-26.0303-5.4517-7.7295-13.9375-12.7334-22.6997-13.3867l-.7559-.0459c8.3506,8.3203,6.7637,19.3213,5.2271,29.9678-.3379,2.3438-.688,4.7676-.9336,7.1514l-2.9746,19.0264Z"/>
        <path class="cls-12" d="M1449.4711,1463.709c3.7165-.0001,7.3311.1942,10.7976.5779,1.1497.1273,2.3101.2703,3.4583.4261,23.2294,3.1534,47.242,15.1993,57.1279,40.2199,6.8602,17.3629,5.4715,39.6429-3.6666,57.01-14.2395,27.0627-44.2996,40.2546-70.4676,40.2546-2.9562,0-5.8582-.168-8.6867-.5034-1.0225,6.6123-2.2331,13.1355-3.4366,19.7115-2.9611,16.1798-3.2159,33.4454-20.9587,33.6216-.0804.0007-.1617.0012-.2422.0012-8.8391,0-18.3909-4.7778-24.6767-11.6228-7.1428-7.7782-4.0822-18.6204-2.5834-28.3868,4.5493-29.6445,9.5239-59.181,14.2012-88.6838.6268-3.9534.8337-7.9468,2.2112-11.7524-.0663-.0319-.1224-.0455-.1718-.0455-.1628,0-.2551.1469-.4156.2701-8.0889,6.2153-13.734,18.5319-23.0096,18.5319-1.3325,0-2.7382-.2537-4.2386-.8163-6.3841-2.3939-10.6498-9.5544-10.4212-17.6591.1803-6.3945,5.2142-14.2574,9.0185-19.0552,17.4438-21.9989,49.3708-32.099,76.1607-32.0997M1379.3404,1527.6125c5.1063,0,8.0255-5.2236,11.8678-9.5048,13.2092-14.7178,29.8455-22.0784,47.4153-22.0784,4.5531,0,9.1653.4936,13.8011,1.4817,37.605,8.015,42.2761,69.1407-2.4747,71.1812-.7462.0341-1.4953.0507-2.2451.0507-3.2672,0-6.5504-.3164-9.6932-.8925l4.5669-29.1811c.9666-11.3149,5.1694-22.226-3.9996-29.5878-3.4387-2.7609-9.088-4.2977-14.4086-4.2978-2.9951,0-5.8856.4869-8.2196,1.5165-9.3268,4.1146-9.3991,12.5083-10.8831,21.972-4.636,29.5651-9.6699,59.1448-14.2028,88.848-.9207,6.0333-3.5044,15.0972.0958,20.541,4.2692,6.4556,15.3108,11.2922,22.5378,11.2922.2322,0,.4603-.0049.6842-.015,7.965-.3588,10.2377-4.282,12.2989-12.8156,2.6874-11.126,3.8254-23.0544,6.185-34.2524l1.0397-7.0822c4.1461.8927,8.556,1.3361,13.0999,1.3361,27.7118,0,60.4732-16.4821,69.6768-48.0415,7.7961-26.7329-1.171-51.3873-21.0178-65.1707-12.6549-8.7886-29.8369-13.0767-47.5764-13.0767-26.2707,0-53.7639,9.4041-69.5879,27.5223-2.8295,3.2397-8.1281,10.7062-9.1358,14.9904-1.4969,6.3641,2.7928,13.5058,7.8263,14.9216.834.2346,1.6146.3429,2.349.3429M1448.4973,1562.6677c10.8897,0,23.0595-5.202,26.6306-18.2131,5.9858-21.8089-10.9742-40.5967-28.9993-41.9404l-7.1529-.4405,4.2871,3.2765c10.0756,9.362,5.6492,22.5955,4.2657,36.0264l-3.2896,21.0206c1.3811.1782,2.8085.2705,4.2583.2705M1449.474,1459.709v4l-.001-4c-14.421.0004-29.7061,2.868-43.0417,8.0745-15.164,5.9203-27.7008,14.752-36.2551,25.54-2.8927,3.6481-9.6462,13.0388-9.8827,21.4278-.2777,9.8468,4.9527,18.4939,13.0153,21.5171,1.8951.7106,3.7938,1.071,5.6431,1.071,7.421,0,12.5108-5.4135,17.3279-10.9542-1.824,11.4943-3.7225,23.1794-5.5596,34.4873-2.8478,17.5284-5.7925,35.6535-8.5374,53.5399-.1834,1.1946-.3907,2.4056-.5994,3.6254-1.589,9.2898-3.39,19.8192,4.1902,28.0737,7.3168,7.9677,17.9013,12.9172,27.6229,12.9172l.282-.0015c8.4539-.0839,14.6509-3.6589,18.4188-10.6259,3.0817-5.698,4.222-12.7888,5.4294-20.2959.3167-1.9692.6442-4.0055,1.0054-5.9795l.2744-1.4982c.8751-4.7765,1.774-9.6829,2.5862-14.6072,1.7574.1178,3.5389.1771,5.3281.1771,14.1451,0,28.9135-3.7101,41.5848-10.4469,14.1823-7.5402,25.3939-18.5867,32.4227-31.9452,9.6065-18.2574,11.1165-41.9433,3.8468-60.3424-9.1608-23.1857-31.143-38.7543-60.3099-42.7137-1.1808-.1603-2.3773-.3077-3.5564-.4382-3.6089-.3996-7.389-.6022-11.2347-.6022h0ZM1379.3404,1523.6125c-.3837,0-.8096-.0651-1.2659-.1934-2.7424-.7715-6.0806-5.6279-5.0156-10.1552.7513-3.1942,5.3909-9.9958,8.2548-13.275,14.0894-16.1321,39.5994-26.1536,66.5751-26.1535,17.73,0,33.8159,4.3903,45.2947,12.3621,19.0712,13.2447,26.5276,36.5287,19.4595,60.7654-8.6464,29.6488-39.6649,45.1614-65.8368,45.1614-4.2923,0-8.4164-.4193-12.2579-1.2465l-4.1786-.8997-.6208,4.229-1.0219,6.9604c-1.0558,5.0315-1.8778,10.2423-2.673,15.2833-.9849,6.2438-2.0034,12.7002-3.4605,18.7327-2.0037,8.2955-3.6315,9.5354-8.5907,9.7588-.1652.0074-.3332.011-.5042.011-5.8519,0-15.7217-4.2369-19.2014-9.4987-2.1102-3.1909-.9745-9.3873-.062-14.3662.2166-1.1816.4211-2.2979.584-3.365,2.574-16.8674,5.3556-33.9763,8.0456-50.522,2.0415-12.5571,4.1526-25.5417,6.1547-38.3097.1713-1.092.3242-2.17.4743-3.2294,1.2061-8.5105,2.113-13.0739,8.0716-15.7026,1.7194-.7585,4.0651-1.1763,6.605-1.1763,4.6465,0,9.3192,1.3412,11.9043,3.4169,5.2607,4.2238,4.7519,9.712,3.3997,19.0489-.325,2.2437-.6607,4.5622-.8689,6.9373l-4.5457,29.0452-.6026,3.8503,3.8333.7026c3.4683.6357,6.9722.958,10.4144.958.8126,0,1.6293-.0184,2.4273-.0548,10.6201-.4843,19.591-4.1666,25.9427-10.6492,5.7157-5.8333,9.1243-13.6183,9.8572-22.5134.803-9.7458-1.8411-20.0778-7.2545-28.3467-5.967-9.1146-14.9944-15.3579-25.4192-17.5798-4.8863-1.0414-9.8102-1.5695-14.6349-1.5695-19.2236,0-36.649,8.0939-50.3922,23.4067-.8621.9604-1.6579,1.9365-2.4276,2.8805-2.6868,3.2952-4.4625,5.296-6.4633,5.296h0ZM1448.8716,1558.6654l2.6088-16.6703.0162-.104.0108-.1046c.2414-2.3436.5881-4.7469.9235-7.071,1.3723-9.5109,2.7834-19.2921-2.4661-27.5555,6.6535,1.6206,12.8386,5.8741,17.0806,11.8888,5.0633,7.1791,6.5638,15.8257,4.225,24.3472-3.0477,11.1039-13.4952,15.1592-22.3989,15.2695h0Z"/>
      </g>
      <path class="cls-11" d="M1433.7063,1594.7883l-1.0397,7.0821c-2.3596,11.198-3.4976,23.1264-6.185,34.2524-2.0612,8.5336-4.3339,12.4568-12.2989,12.8156-7.195.3241-18.8157-4.6142-23.2221-11.2772-3.6002-5.4439-1.0165-14.5077-.0958-20.541,4.5328-29.7032,9.5668-59.2829,14.2028-88.848,1.484-9.4637,1.5562-17.8573,10.8831-21.972,6.4803-2.8588,17.2539-1.5338,22.6282,2.7813,9.169,7.3618,4.9662,18.2729,3.9996,29.5878l-4.5669,29.181c3.8641.7082,7.9407,1.024,11.9383.8418,44.7507-2.0403,40.0796-63.1661,2.4747-71.1811-22.5245-4.8008-44.5841,2.065-61.2164,20.5968-4.3949,4.8968-7.5835,11.0276-14.2168,9.1618-5.0335-1.4158-9.3233-8.5575-7.8263-14.9216,1.0077-4.2842,6.3063-11.7506,9.1358-14.9904,26.5092-30.3525,85.7684-36.2495,117.1642-14.4456,19.8469,13.7834,28.8139,38.4378,21.0178,65.1707-10.7127,36.7341-53.3445,53.0423-82.7767,46.7055Z"/>
    </g>
  </g>
  <g id="mouth">
    <path class="cls-12" d="M1935.4395,1809.5236c43.8459-1.1691,83.4242-16.3005,118.7815-41.8696,7.7955,11.6303,16.5282,23.126,26.4927,32.8729,3.9199,3.8973,3.9385,10.2344.0413,14.1543-4.0831,4.1481-10.9658,3.8764-14.7183-.5678-8.0178-9.3371-15.157-19.3737-21.3148-29.9326l12.4554,2.2733c-8.4171,6.836-17.3599,13.0715-26.7036,18.7061-28.3058,17.0204-60.3106,27.7304-93.1864,31.1533-7.395.8132-14.0491-4.5454-14.8295-11.9445-.8543-7.7388,5.2031-14.6545,12.9817-14.8453h0Z"/>
  </g>
  <path class="cls-12" d="M1739.5043,1391.754c52.5048-38.4996,115.54-62.4148,180.368-68.1919,0-.0001,1.2009,11.0754,1.2009,11.0754-31.0901,3.9002-61.6061,12.0347-90.4851,24.0854-28.7633,12.0293-55.8649,27.9593-80.3568,47.1996,0,0-10.7269-14.1685-10.7269-14.1685h0Z"/>
</svg>