<!DOCTYPE svg PUBLIC "-//W3C//DTD SVG 1.1//EN" "http://www.w3.org/Graphics/SVG/1.1/DTD/svg11.dtd">
<!-- Uploaded to: SVG Repo, www.svgrepo.com, Transformed by: SVG Repo Mixer Tools -->
<svg fill="#ffffff" width="800px" height="800px" viewBox="0 -64 640 640" xmlns="http://www.w3.org/2000/svg" stroke="#ffffff">
<g id="SVGRepo_bgCarrier" stroke-width="0"/>
<g id="SVGRepo_tracerCarrier" stroke-linecap="round" stroke-linejoin="round"/>
<g id="SVGRepo_iconCarrier">
<path d="M476 480H324a36 36 0 0 1-36-36V96h-96v156a36 36 0 0 1-36 36H16a16 16 0 0 1-16-16v-32a16 16 0 0 1 16-16h112V68a36 36 0 0 1 36-36h152a36 36 0 0 1 36 36v348h96V260a36 36 0 0 1 36-36h140a16 16 0 0 1 16 16v32a16 16 0 0 1-16 16H512v156a36 36 0 0 1-36 36z"/>
</g>
</svg>